<svg width="14" height="16" viewBox="0 0 14 16" fill="none" xmlns="http://www.w3.org/2000/svg">
<path fill-rule="evenodd" clip-rule="evenodd" d="M5.98243 1.37644V3.99552C5.98243 4.17224 5.94655 4.35115 5.87322 4.51726C4.70982 7.15268 2.99393 8.44474 1.34778 8.73879C1.30752 8.74599 1.27483 8.76641 1.25665 8.78615C1.24843 8.79507 1.24545 8.80132 1.24469 8.80317L1.2444 8.80388L1.24444 13.0334C1.24444 13.0334 1.24591 13.0354 1.24752 13.0369C1.25414 13.0431 1.2637 13.047 1.27494 13.0464C2.62308 12.9648 3.49747 13.1092 4.16766 13.3373C4.49744 13.4495 4.76431 13.5776 4.98882 13.6881C5.00846 13.6978 5.02762 13.7073 5.04633 13.7165C5.24947 13.8167 5.40092 13.8913 5.56314 13.9488C5.65445 13.9812 5.92995 14.0218 6.40963 14.0438C6.85884 14.0643 7.414 14.0666 8.00641 14.0569C9.18991 14.0375 10.4917 13.9708 11.328 13.9152L11.348 13.9139H11.3681C11.4601 13.9139 11.5177 13.9022 11.5505 13.8918C11.5814 13.8821 11.5921 13.8729 11.5937 13.8716C11.5954 13.8701 11.6 13.8662 11.6069 13.8528C11.6148 13.8377 11.6259 13.8098 11.6353 13.7633C11.6813 13.5341 11.6314 13.2009 11.5607 12.8077C11.4834 12.3773 11.7014 12.003 11.991 11.8111C12.4957 11.4766 12.5088 11.0716 12.4643 10.9349C12.3822 10.6819 12.3529 10.3065 12.5662 9.9718C12.7767 9.64154 12.7706 9.42999 12.7389 9.2997C12.7003 9.14098 12.5927 8.98408 12.4394 8.83403C12.0944 8.49622 12.0536 7.98035 12.255 7.59511C12.3405 7.43152 12.3401 7.32514 12.3276 7.25789C12.3132 7.17992 12.2693 7.09057 12.1842 6.99514C12.0986 6.89915 11.9892 6.81802 11.8881 6.76237C11.8405 6.73619 11.8019 6.71965 11.7771 6.71078H8.35406V4.47328C8.35406 2.50718 7.90054 1.77794 7.5275 1.50361C7.14393 1.22153 6.6099 1.2359 5.98243 1.37644ZM8.25181 0.463948C9.12797 1.10827 9.59849 2.3852 9.59849 4.47328V5.43223H11.8221C11.9577 5.43223 12.0842 5.46788 12.1714 5.49811C12.2703 5.53235 12.3736 5.57918 12.4756 5.63529C12.6777 5.74647 12.9053 5.9112 13.1016 6.13128C13.2984 6.35191 13.4815 6.64884 13.5501 7.01858C13.6113 7.34878 13.5733 7.69576 13.4262 8.04196C13.6306 8.26879 13.8475 8.58408 13.9462 8.98951C14.0666 9.48415 13.9906 10.027 13.6613 10.5842C13.8668 11.3005 13.5912 12.183 12.8199 12.7754C12.8775 13.1141 12.94 13.5934 12.854 14.0215C12.7974 14.3038 12.6674 14.6177 12.3883 14.8555C12.1133 15.0899 11.7662 15.1887 11.3898 15.1923C10.539 15.2486 9.22665 15.3156 8.02627 15.3352C7.42237 15.3451 6.83919 15.3432 6.35428 15.321C5.89983 15.3002 5.44541 15.2596 5.15728 15.1575C4.92295 15.0744 4.70589 14.9671 4.51431 14.8724C4.49294 14.8618 4.47188 14.8514 4.45115 14.8412C4.2363 14.7354 4.0279 14.6366 3.77637 14.551C3.28396 14.3834 2.57164 14.2487 1.34809 14.3227C0.643866 14.3653 0 13.8026 0 13.0339V8.80388C0 8.07706 0.562731 7.5813 1.13462 7.47915C2.28446 7.27375 3.70324 6.33466 4.73799 3.99348V1.36983C4.73799 0.797229 5.11392 0.264501 5.69301 0.132731C6.3574 -0.018448 7.39033 -0.169581 8.25181 0.463948Z" fill="white"/>
</svg>
